HIERARCHY
ROOT pelvis
{
  OFFSET 0 100 0
  CHANNELS 6 Xposition Yposition Zposition Zrotation Xrotation Yrotation
  JOINT pelvis_right_femur
  {
    OFFSET -10.78128 -3.44521 -0.5502486
    CHANNELS 3 Zrotation Xrotation Yrotation
    JOINT right_femur_tibia
    {
      OFFSET -0.8047443 -44.0398 -0.1307829
      CHANNELS 3 Zrotation Xrotation Yrotation
      JOINT right_tibia_foot
      {
        OFFSET 3.006224 -47.83518 -5
        CHANNELS 3 Zrotation Xrotation Yrotation
        End Site
        {
          OFFSET 0 -5 15
        }
      }
    }
  }
  JOINT pelvis_left_femur
  {
    OFFSET 10.78128 -3.44521 -0.5502486
    CHANNELS 3 Zrotation Xrotation Yrotation
    JOINT left_femur_tibia
    {
      OFFSET 0.8047443 -44.0398 -0.1307829
      CHANNELS 3 Zrotation Xrotation Yrotation
      JOINT left_tibia_foot
      {
        OFFSET -4.370144 -48.10324 -4.275266
        CHANNELS 3 Zrotation Xrotation Yrotation
        End Site
        {
          OFFSET 0 -5 15
        }
      }
    }
  }
  JOINT pelvis_spine1
  {
    OFFSET 0 6.468898 -3.129235
    CHANNELS 3 Zrotation Xrotation Yrotation
    JOINT spine1
    {
      OFFSET 0 23.15396 4.99043
      CHANNELS 3 Zrotation Xrotation Yrotation
      JOINT spine2
      {
        OFFSET 0 20.79997 -5.064912
        CHANNELS 3 Zrotation Xrotation Yrotation
        JOINT neck
        {
          OFFSET 0 14.38658 9.616178
          CHANNELS 3 Zrotation Xrotation Yrotation
          End Site
          {
            OFFSET 0 20 0
          }
        }
      }
      JOINT right_manubrium
      {
        OFFSET -5.722621 16.35077 3.967754
        CHANNELS 3 Zrotation Xrotation Yrotation
        JOINT right_clavicle
        {
          OFFSET -13.16364 1.694482 -4.693211
          CHANNELS 3 Zrotation Xrotation Yrotation
          JOINT right_humerus
          {
            OFFSET -28.5034 -0.3100689 -2.792744
            CHANNELS 3 Zrotation Xrotation Yrotation
            JOINT right_radius
            {
              OFFSET -25.15693 0.02248979 -1.271978
              CHANNELS 3 Zrotation Xrotation Yrotation
              End Site
              {
                OFFSET -15 0 0
              }
            }
          }
        }
      }
      JOINT left_manubrium
      {
        OFFSET 5.722621 16.35077 3.967754
        CHANNELS 3 Zrotation Xrotation Yrotation
        JOINT left_clavicle
        {
          OFFSET 13.16364 1.694482 -4.693211
          CHANNELS 3 Zrotation Xrotation Yrotation
          JOINT left_humerus
          {
            OFFSET 29.39168 -1.063119 -2.237045
            CHANNELS 3 Zrotation Xrotation Yrotation
            JOINT left_radius
            {
              OFFSET 24.59957 -0.9528479 0.9047498
              CHANNELS 3 Zrotation Xrotation Yrotation
              End Site
              {
                OFFSET 15 -0 -0
              }
            }
          }
        }
      }
    }
  }
}
MOTION
Frames: 15
Frame Time: 0.0416666666667
0 103.5113 0 0.5261813 -0.4563975 -0.01341329 4.624595 -19.01513 9.715872 -0 38.91857 -0 -6.842768 -14.36928 -2.16317 -7.201222 9.703828 -24.21806 -0 4.622334 -0 10.40895 -17.79452 28.71438 -3.769379 -2.901674 4.623643 2.610133 9.613313 -7.108136 1.559746 22.23122 7.084344 3.608325 -25.43742 9.826548 6.977703 -20.13315 11.76907 84.35865 36.35339 -17.34126 -0 0 16.39857 -5.786539 7.531168 4.133477 6.094262 -19.2561 -1.120799 -95.28018 26.35563 23.28821 0 0 -14.44238 9.963745 17.7657 2.892953
0.3849842 103.8206 1.119744 0.5816473 -0.7222006 -0.03176679 4.467733 -18.60401 9.634348 -0 39.56095 -0 -6.992206 -14.14049 -2.162665 -7.233863 9.710471 -24.27592 -0 4.810901 -0 10.46984 -17.65932 28.85123 -3.813648 -2.886625 4.58659 2.566794 9.675577 -7.047135 1.576202 22.34555 7.052794 3.605681 -25.35442 9.800527 6.935976 -20.13957 11.76852 84.42188 36.19545 -17.23735 -0 0 16.29898 -5.877099 7.444232 4.183642 6.041917 -19.22862 -1.195142 -95.27339 26.28716 23.23553 0 0 -14.15628 10.05473 17.84208 2.750252
0.7156576 103.8974 2.68311 0.2071407 0.7930905 0.04840488 4.9527 -22.0514 8.740407 -0 33.3656 -0 -6.596382 -13.6039 -2.118595 -6.779254 10.46774 -22.9314 -0 3.464462 -0 8.538004 -19.2109 26.47961 -3.431955 -2.694012 4.41737 2.719749 9.293284 -7.601641 1.307545 21.75282 7.443281 3.769611 -25.54476 9.720781 6.808467 -19.68199 11.65934 85.02618 36.97431 -18.78487 -0 0 15.71965 -6.565446 8.192855 4.505718 6.523786 -20.09957 -1.180249 -94.41064 27.4334 22.28523 0 0 -17.42738 8.346381 17.15117 4.980042
1.012852 103.7851 4.598584 -0.08329739 1.806408 0.1935183 5.450996 -24.43034 8.30877 -0 29.20023 -0 -6.255004 -13.2825 -2.085443 -6.476701 11.08439 -22.00461 -0 3.044803 -0 7.53369 -19.9951 25.0079 -3.121276 -2.645015 4.355252 2.848313 9.07372 -7.941892 1.199696 21.29104 7.61211 3.81867 -25.73795 9.713612 6.609063 -19.42091 11.57537 85.44534 37.16163 -19.75202 -0 0 15.41992 -6.905716 8.632249 4.571525 6.864615 -20.62481 -1.126211 -93.70505 27.56589 21.53383 0 0 -19.39577 7.926608 16.61612 5.546168
1.264727 103.4835 7.007762 -0.4066832 2.693759 0.4012526 5.897666 -26.97614 7.561813 -0 24.57176 -0 -6.063599 -12.28868 -2.033335 -6.122519 12.00236 -20.74706 -0 3.269234 -0 6.287149 -20.68183 23.17454 -2.732336 -2.571672 4.212352 2.949407 8.917 -8.290047 1.104341 20.84041 7.753311 3.862348 -25.86618 9.659441 6.187695 -19.06672 11.4556 86.18729 36.9513 -20.89861 -0 0 14.78586 -7.561812 9.066879 4.720397 7.238228 -21.30684 -1.195099 -92.63308 27.33126 20.31228 0 0 -21.53979 7.781241 15.9784 5.715666
1.475751 103.0413 9.966469 -0.7245628 3.341404 0.6479586 6.322798 -29.15752 6.772329 -0 20.47064 -0 -6.030995 -10.89344 -1.941662 -5.811744 12.9413 -19.42294 -0 4.47635 -0 5.199308 -20.99128 21.40617 -2.31182 -2.532244 4.074535 3.02298 8.880632 -8.571107 1.054291 20.44039 7.817533 3.880269 -25.97919 9.588629 5.638303 -18.73552 11.3459 87.03709 36.35935 -21.94589 -0 0 14.03422 -8.293863 9.398857 4.845008 7.554464 -21.97547 -1.334251 -91.49648 26.55247 19.02267 0 0 -23.33317 8.15778 15.35098 5.191251
1.647435 102.5195 13.55533 -1.032857 3.712612 0.915581 6.675594 -30.95566 5.819206 -0 16.79009 -0 -6.213067 -8.924776 -1.808295 -5.534559 13.88591 -17.92398 -0 6.909718 -0 4.10581 -20.91866 19.54818 -1.84493 -2.495232 3.921025 3.054286 8.98378 -8.800178 1.027202 20.10597 7.823239 3.887167 -26.03775 9.467382 4.946644 -18.39382 11.25202 88.06971 35.3899 -22.96289 -0 0 13.05951 -9.222172 9.6679 5.007143 7.797499 -22.69183 -1.594737 -90.28052 25.31867 17.63859 0 0 -24.90136 8.875632 14.69771 4.194615
1.787079 102.0129 17.82098 -1.310911 3.768857 1.179711 6.967718 -32.14753 4.779496 -0 13.83479 -0 -6.619946 -6.488328 -1.623104 -5.313712 14.65323 -16.30357 -0 10.78844 -0 3.081447 -20.36977 17.69451 -1.344793 -2.46441 3.788532 3.038889 9.254228 -8.964086 1.016057 19.85112 7.767289 3.884041 -26.0434 9.287456 4.167979 -18.08387 11.20257 89.2206 34.11392 -23.8831 -0 0 11.93342 -10.29528 9.878446 5.194502 7.916679 -23.41834 -1.977369 -89.12889 23.68714 16.36446 0 0 -26.13621 9.857326 14.03504 2.834908
1.903664 101.6417 22.77632 -1.535086 3.466688 1.412777 7.203679 -32.53775 3.697557 -0 11.76512 -0 -7.256116 -3.695984 -1.386589 -5.146453 15.0625 -14.57688 -0 16.26993 -0 2.137098 -19.28816 15.89041 -0.8232788 -2.427693 3.703764 2.968683 9.711896 -9.057907 1.007476 19.69351 7.651038 3.872306 -25.97268 9.029937 3.347801 -17.83686 11.22098 90.45354 32.60763 -24.67386 -0 0 10.70768 -11.50399 10.05633 5.418044 7.867246 -24.13841 -2.497055 -88.12994 21.78331 15.34085 0 0 -27.00495 10.94858 13.37348 1.314174
2.007411 101.5445 28.37539 -1.678968 2.78399 1.58446 7.413443 -31.91554 2.672722 -0 10.72528 -0 -8.090345 -0.7968189 -1.108641 -5.013945 14.87715 -12.80077 -0 23.3321 -0 1.328895 -17.64708 14.23877 -0.3029581 -2.376739 3.70825 2.840074 10.36401 -9.075484 0.9884967 19.64486 7.47407 3.848987 -25.80729 8.682078 2.550724 -17.70886 11.33193 91.69151 30.98861 -25.28066 -0 0 9.503837 -12.79739 10.22984 5.677752 7.607439 -24.81356 -3.150858 -87.37754 19.77704 14.74062 0 0 -27.45967 11.98024 12.74965 -0.142116
2.106307 101.8544 34.49993 -1.719461 1.725078 1.664611 7.625999 -30.11134 1.808378 -0 10.71261 -0 -9.052745 1.86282 -0.8212386 -4.86939 13.85351 -11.04397 -0 31.68545 -0 0.7030205 -15.48508 12.8513 0.1868171 -2.299818 3.843126 2.652469 11.19427 -9.013418 0.9464287 19.71067 7.236842 3.807505 -25.52351 8.235428 1.840082 -17.76396 11.55131 92.83733 29.39341 -25.64627 -0 0 8.483644 -14.11848 10.43303 5.97977 7.115416 -25.3999 -3.921472 -86.93241 17.87828 14.70518 0 0 -27.48375 12.76005 12.21836 -1.280961
2.203623 102.6631 40.95618 -1.64613 0.3445107 1.627432 7.856069 -27.0487 1.195138 -0 11.53116 -0 -10.02572 3.855111 -0.5820077 -4.642727 11.78176 -9.38704 -0 40.66534 -0 0.2933639 -12.92915 11.84076 0.6118644 -2.187742 4.14369 2.411602 12.15228 -8.872146 0.8721953 19.88151 6.941778 3.737786 -25.1035 7.693747 1.269844 -18.07036 11.87966 93.76725 27.96748 -25.70604 -0 0 7.851375 -15.39966 10.69781 6.33467 6.404663 -25.8476 -4.765038 -86.82993 16.30298 15.33816 0 0 -27.09185 13.10617 11.84221 -1.865042
2.297741 103.9776 47.49693 -1.470457 -1.242087 1.454823 8.086534 -22.79317 0.8770244 -0 12.76546 -0 -10.85957 4.753142 -0.4639505 -4.254213 8.552907 -7.899287 -0 49.22143 -0 0.09738963 -10.19777 11.28987 0.9402018 -2.037175 4.625488 2.130107 13.14804 -8.656648 0.7638886 20.12898 6.594937 3.628402 -24.54186 7.077758 0.8687613 -18.6823 12.29396 94.34508 26.83761 -25.39081 -0 0 7.819699 -16.57801 11.04545 6.76167 5.535673 -26.10857 -5.607558 -87.0838 15.22935 16.6792 0 0 -26.3306 12.87934 11.66608 -1.715962
2.386804 105.6908 53.87168 -1.230538 -2.860633 1.137365 8.271595 -17.57159 0.8404467 -0 13.85794 -0 -11.41598 4.246334 -0.5211532 -3.637501 4.220881 -6.620582 -0 56.0511 -0 0.0705196 -7.569169 11.22853 1.150925 -1.85607 5.272715 1.82698 14.05912 -8.375777 0.62977 20.40542 6.207249 3.470128 -23.85604 6.427866 0.6309145 -19.62105 12.74436 94.44522 26.08475 -24.63166 -0 0 8.561404 -17.60403 11.47627 7.286161 4.612804 -26.14283 -6.348888 -87.6967 14.75106 18.69457 0 0 -25.25633 12.02174 11.6928 -0.762081
2.476735 107.5881 59.89155 -0.9849719 -4.310097 0.6731954 8.355835 -11.73719 1.023835 -0 14.28729 -0 -11.62663 2.259657 -0.7474395 -2.761446 -0.9667709 -5.555837 -0 59.90645 -0 0.1347549 -5.313607 11.62165 1.241709 -1.665551 6.032588 1.523969 14.75471 -8.039739 0.4886921 20.65379 5.79419 3.259928 -23.08998 5.79962 0.5160572 -20.85853 13.15881 93.98663 25.72217 -23.37229 -0 0 10.15032 -18.44758 11.96341 7.932178 3.760264 -25.92386 -6.881762 -88.66328 14.8498 21.27996 0 0 -23.901 10.5833 11.87726 0.9327864
